<?xml version="1.0" encoding="utf-8"?>
<!-- Generator: Adobe Illustrator 27.5.0, SVG Export Plug-In . SVG Version: 6.00 Build 0)  -->
<svg version="1.1" id="Ebene_1" xmlns="http://www.w3.org/2000/svg" xmlns:xlink="http://www.w3.org/1999/xlink" x="0px" y="0px"
	 viewBox="0 0 157.84 83.68" style="enable-background:new 0 0 157.84 83.68;" xml:space="preserve">
<style type="text/css">
	.st0{fill:#010202;}
</style>
<g>
	<g>
		<path class="st0" d="M34.16,74.27c0.94,0,1.67,0.75,1.67,1.67c0,0.96-0.73,1.72-1.67,1.72c-0.96,0-1.69-0.75-1.69-1.72
			C32.47,75.03,33.2,74.27,34.16,74.27z"/>
		<path class="st0" d="M48.05,75.38c2.15,0.55,4.02,1.3,4.02,3.68c0,2.1-1.78,3.54-4.37,3.54c-1.92,0-3.45-0.71-4.44-1.99l1.62-1.46
			c0.66,0.85,1.71,1.35,2.81,1.35c1.19,0,2.08-0.53,2.08-1.35c0-0.91-0.94-1.23-2.31-1.65c-2.13-0.62-3.77-1.37-3.77-3.7
			c0-1.85,1.6-3.32,3.84-3.32c1.6,0,2.95,0.55,4,1.53l-1.58,1.46c-0.66-0.59-1.46-0.92-2.36-0.92c-0.94,0-1.65,0.53-1.65,1.23
			C45.97,74.62,46.54,74.99,48.05,75.38z"/>
		<path class="st0" d="M56.12,72.84h-2.08v-2.1h1.07c0.73,0,1.03-0.34,1.1-1.03l0.18-2.29h2.04v3.32h3.36v2.1h-3.36v5.63
			c0,1.42,0.71,1.87,1.67,1.87c0.8,0,1.23-0.05,1.92-0.21v2.17c-0.71,0.16-1.33,0.25-2.1,0.25c-2.29,0-3.8-1.39-3.8-3.93V72.84z"/>
		<path class="st0" d="M65.41,77.32v-6.59h2.29V77c0,2.42,1.07,3.43,2.72,3.43s2.72-1.01,2.72-3.43v-6.27h2.29v6.59
			c0,3.75-2.56,5.28-5.01,5.28C67.95,82.6,65.41,81.07,65.41,77.32z"/>
		<path class="st0" d="M91.34,82.35h-2.1v-1.78c-0.73,1.01-1.94,2.03-4.3,2.03c-3.2,0-5.85-2.65-5.85-6.06
			c0-3.38,2.65-6.06,5.85-6.06c2.06,0,3.27,0.91,4.09,1.87v-6.61h2.31V82.35z M81.41,76.55c0,2.13,1.6,3.86,3.8,3.86
			c2.17,0,3.8-1.74,3.8-3.86c0-2.1-1.62-3.86-3.8-3.86C83.01,72.68,81.41,74.44,81.41,76.55z"/>
		<path class="st0" d="M97.42,65.52c0.82,0,1.49,0.69,1.49,1.49c0,0.82-0.66,1.49-1.49,1.49c-0.85,0-1.46-0.66-1.46-1.49
			C95.96,66.21,96.57,65.52,97.42,65.52z M96.28,82.35V70.74h2.29v11.62H96.28z"/>
		<path class="st0" d="M108.58,70.49c3.45,0,6.13,2.68,6.13,6.06c0,3.38-2.68,6.06-6.13,6.06c-3.48,0-6.13-2.67-6.13-6.06
			C102.45,73.16,105.1,70.49,108.58,70.49z M112.37,76.55c0-2.1-1.62-3.86-3.8-3.86c-2.2,0-3.8,1.76-3.8,3.86
			c0,2.13,1.6,3.86,3.8,3.86C110.75,80.41,112.37,78.67,112.37,76.55z"/>
		<path class="st0" d="M123.82,74.27c0.94,0,1.67,0.75,1.67,1.67c0,0.96-0.73,1.72-1.67,1.72c-0.96,0-1.69-0.75-1.69-1.72
			C122.12,75.03,122.86,74.27,123.82,74.27z"/>
	</g>
</g>
<g>
	<path class="st0" d="M19.55,77.66L0,75.38l1.14-9.83l2.68,0.31l-0.81,6.98l5.64,0.66l0.79-6.82L12.13,67l-0.79,6.82l8.55,0.99
		L19.55,77.66z"/>
	<path class="st0" d="M22.77,60.58L4.75,52.65l4.09-9.3l2.47,1.09l-2.93,6.67l5.2,2.29l2.78-6.33l2.47,1.09l-2.78,6.33l5.41,2.38
		l2.99-6.8l2.47,1.09L22.77,60.58z"/>
	<path class="st0" d="M30.88,44.49L16.75,30.78l5.23-5.39c3.95-4.08,9.82-4.27,13.96-0.25c4.12,3.99,4.13,9.88,0.17,13.96
		L30.88,44.49z M30.92,40.53l3.21-3.31c2.92-3.01,2.69-7.18-0.21-10c-2.91-2.82-7.08-2.91-10,0.09l-3.21,3.31L30.92,40.53z"/>
	<path class="st0" d="M42.15,20.64c-2.31-5.28-0.05-11.12,5.18-13.41c5.26-2.3,11.06,0.01,13.37,5.3
		c2.31,5.28,0.07,11.11-5.18,13.41C50.29,28.22,44.47,25.92,42.15,20.64z M58.05,13.68c-1.62-3.71-5.75-5.65-9.62-3.96
		c-3.84,1.68-5.25,6.04-3.62,9.75c1.61,3.68,5.78,5.64,9.62,3.96C58.29,21.74,59.66,17.37,58.05,13.68z"/>
	<path class="st0" d="M81.65,20.42l-5.85-7l-3.43,0.17l0.37,7.28l-2.89,0.15l-1-19.66l6.88-0.35c2.84-0.14,6.31,1.62,6.52,5.83
		c0.15,3.03-1.46,5-3.44,5.95l6.18,7.46L81.65,20.42z M72.24,10.96l3.62-0.18c2.75-0.14,3.61-2.13,3.52-3.78
		c-0.08-1.63-1.13-3.46-3.89-3.32l-3.62,0.19L72.24,10.96z"/>
	<path class="st0" d="M91.72,21.74l5.61-18.87l9.73,2.89l-0.77,2.59l-6.98-2.08l-1.62,5.44l6.63,1.97l-0.77,2.59l-6.63-1.97
		l-1.68,5.66l7.12,2.12l-0.77,2.59L91.72,21.74z"/>
	<path class="st0" d="M108.68,27.74l11.91-15.67l2.1,1.6l-0.08,18.27l0.02,0.02l8.83-11.62l2.28,1.74l-11.91,15.67l-2.13-1.62
		l0.1-18.26l-0.02-0.02l-8.83,11.62L108.68,27.74z"/>
	<path class="st0" d="M136.56,41.48l-8.12,4.95l-1.51-2.47l16.81-10.25l1.51,2.47l-7.52,4.58l11.5,1.95l1.83,3l-12.41-2.09
		l-4.13,12.79l-1.82-2.98L136.56,41.48z"/>
	<path class="st0" d="M145.88,58.18c5.68-0.99,10.82,2.59,11.8,8.21c0.99,5.65-2.63,10.74-8.31,11.73
		c-5.68,0.99-10.81-2.56-11.8-8.21C136.58,64.29,140.2,59.17,145.88,58.18z M148.87,75.27c3.99-0.7,6.85-4.25,6.12-8.41
		c-0.72-4.13-4.63-6.53-8.61-5.83c-3.96,0.69-6.84,4.28-6.12,8.41C140.98,73.59,144.91,75.96,148.87,75.27z"/>
</g>
</svg>
